<?xml version="1.0" encoding="utf-8"?><!DOCTYPE svg PUBLIC "-//W3C//DTD SVG 1.1//EN" "http://www.w3.org/Graphics/SVG/1.1/DTD/svg11.dtd"><svg version="1.1" xmlns="http://www.w3.org/2000/svg" xmlns:xlink="http://www.w3.org/1999/xlink" width="32" height="32" viewBox="0 0 32 32" data-tags="hackerrank"><g fill="#444" transform="scale(0.03125 0.03125)"><path fill="rgb(46, 200, 102)" d="M512 0c54.827 0 416 208.469 443.392 256 27.52 47.573 27.52 464.427 0 512s-388.48 256-443.392 256-416-208.427-443.52-256c-27.349-47.573-27.349-464.427 0-512 27.52-47.531 388.693-256 443.52-256zM609.92 290.091c-6.016 0-11.008 4.907-11.008 11.008v165.333h-173.824v-171.691h29.909c6.016 0 10.837-4.907 10.837-11.008 0-4.011-2.091-7.509-5.248-9.429l-67.072-64.384c-2.091-2.688-6.016-4.651-9.643-4.651-3.584 0-6.827 1.92-8.832 4.565l-71.68 64.512c-3.072 1.92-5.12 5.376-5.12 9.301 0 6.101 4.821 11.008 10.88 11.008h30.037l0.341 428.16c0 6.187 4.736 11.008 10.837 11.008h63.659c6.059 0 11.051-4.907 11.051-10.923v-170.837h173.781v177.152h-29.824c-6.101 0-10.923 4.907-10.923 11.008 0 3.925 2.048 7.424 5.077 9.344l67.371 64.427c1.877 2.603 6.016 4.651 9.6 4.651 3.627 0 6.784-1.92 8.875-4.651l71.637-64.427c3.072-1.92 5.12-5.419 5.12-9.344 0-6.101-4.907-11.008-10.88-11.008h-30.037l-0.299-428.117c0-6.187-4.864-11.093-10.88-11.093h-63.744z" /></g></svg>